<?xml version="1.0" standalone="no"?>
<!DOCTYPE svg PUBLIC "-//W3C//DTD SVG 20010904//EN"
 "http://www.w3.org/TR/2001/REC-SVG-20010904/DTD/svg10.dtd">
<svg version="1.0" xmlns="http://www.w3.org/2000/svg"
 width="600.000000pt" height="79.000000pt" viewBox="0 0 600.000000 79.000000"
 preserveAspectRatio="xMidYMid meet">

<g transform="translate(0.000000,79.000000) scale(0.100000,-0.100000)"
fill="#000000" stroke="none">
<path d="M1653 773 c9 -2 23 -2 30 0 6 3 -1 5 -18 5 -16 0 -22 -2 -12 -5z"/>
<path d="M1700 710 l0 -70 -132 0 -133 1 50 46 c28 25 41 41 30 35 -11 -6 -38
-29 -60 -51 l-39 -41 147 0 147 0 0 75 c0 41 -2 75 -5 75 -3 0 -5 -31 -5 -70z"/>
<path d="M1762 708 l-2 -78 147 0 146 0 -24 26 c-13 14 -37 35 -54 46 -17 12
-11 3 15 -20 l45 -41 -132 -1 -132 0 -4 73 -3 72 -2 -77z"/>
<path d="M1788 773 c6 -2 18 -2 25 0 6 3 1 5 -13 5 -14 0 -19 -2 -12 -5z"/>
<path d="M1838 763 c7 -3 16 -2 19 1 4 3 -2 6 -13 5 -11 0 -14 -3 -6 -6z"/>
<path d="M1871 756 c10 -9 69 -36 69 -32 0 6 -55 36 -66 36 -4 0 -5 -2 -3 -4z"/>
<path d="M5559 725 c-67 -22 -140 -91 -175 -167 -25 -56 -29 -74 -29 -163 0
-135 20 -191 94 -266 68 -68 123 -89 230 -89 167 0 283 103 313 278 28 163
-38 319 -163 387 -46 24 -67 29 -139 32 -55 2 -101 -2 -131 -12z m197 -44 c63
-38 90 -154 81 -341 -7 -133 -18 -177 -53 -220 -47 -55 -146 -62 -204 -13 -53
44 -65 98 -65 288 0 154 2 175 22 217 13 29 35 55 55 68 43 26 122 27 164 1z"/>
<path d="M0 715 c0 -11 11 -15 38 -15 21 0 43 -5 50 -12 9 -9 12 -89 12 -299
0 -286 0 -288 -22 -303 -12 -9 -35 -16 -50 -16 -16 0 -28 -4 -28 -10 0 -6 111
-10 314 -10 l313 0 6 68 c10 103 9 142 -6 142 -7 0 -20 -22 -30 -49 -23 -66
-79 -116 -146 -130 -74 -16 -176 -14 -190 3 -8 9 -11 63 -9 167 l3 154 55 -3
c30 -2 68 -8 83 -14 31 -12 57 -54 57 -93 0 -18 5 -25 20 -25 19 0 20 7 20
150 0 143 -1 150 -20 150 -15 0 -20 -7 -20 -29 0 -62 -71 -111 -163 -111 l-38
0 3 133 3 132 116 0 c112 0 117 -1 153 -29 44 -33 76 -81 76 -113 0 -17 6 -23
21 -23 21 0 22 3 15 61 -3 34 -6 79 -6 100 l0 39 -315 0 c-273 0 -315 -2 -315
-15z"/>
<path d="M660 715 c0 -11 11 -15 38 -15 21 0 43 -5 50 -12 14 -14 17 -574 3
-596 -4 -8 -27 -15 -50 -15 -25 -1 -41 -7 -41 -14 0 -10 67 -13 300 -13 l300
0 0 69 c0 37 3 96 6 130 6 55 5 61 -12 61 -14 0 -23 -14 -36 -58 -21 -70 -66
-135 -110 -158 -43 -22 -162 -31 -183 -14 -13 11 -15 56 -15 304 0 214 3 295
12 304 7 7 29 12 50 12 27 0 38 4 38 15 0 13 -26 15 -175 15 -149 0 -175 -2
-175 -15z"/>
<path d="M2170 715 c0 -11 11 -15 38 -15 21 0 43 -5 50 -12 9 -9 12 -89 12
-300 l0 -288 -25 -16 c-14 -9 -36 -14 -50 -12 -17 4 -25 1 -25 -8 0 -11 26
-14 125 -14 93 0 125 3 125 13 0 7 -14 12 -35 13 -66 1 -66 -2 -63 315 l3 284
106 -310 106 -310 38 0 38 0 106 307 106 306 3 -286 c1 -159 -2 -290 -7 -295
-5 -5 -27 -11 -50 -14 -93 -13 -30 -23 139 -23 170 0 232 10 138 23 -23 3 -48
14 -55 23 -10 14 -13 86 -13 301 0 317 -3 303 74 303 26 0 36 4 36 15 0 13
-21 15 -147 13 l-146 -3 -81 -232 c-45 -127 -83 -234 -86 -237 -3 -3 -41 103
-85 234 l-80 240 -147 0 c-125 0 -148 -2 -148 -15z"/>
<path d="M3100 715 c0 -10 10 -15 34 -15 69 0 66 13 66 -249 0 -241 8 -311 38
-344 70 -78 284 -96 397 -34 74 40 80 65 83 352 2 154 8 255 14 262 6 7 28 13
49 13 28 0 39 4 39 15 0 13 -21 15 -125 15 -104 0 -125 -2 -125 -15 0 -11 11
-15 38 -15 21 0 43 -5 50 -12 9 -9 12 -78 12 -251 0 -268 -5 -293 -65 -321
-44 -21 -147 -21 -191 0 -61 29 -64 46 -64 309 0 144 4 244 10 256 8 14 21 19
50 19 29 0 40 4 40 15 0 13 -26 15 -175 15 -149 0 -175 -2 -175 -15z"/>
<path d="M3840 715 c0 -11 11 -15 38 -15 21 0 43 -5 50 -12 9 -9 12 -89 12
-300 l0 -288 -25 -16 c-14 -9 -36 -14 -50 -12 -17 4 -25 1 -25 -8 0 -11 26
-14 125 -14 103 0 125 3 125 15 0 8 -6 12 -15 9 -8 -3 -30 -1 -50 6 l-35 12 0
251 c0 139 4 247 8 241 4 -6 83 -129 176 -272 l169 -262 54 0 53 0 0 315 c0
300 1 315 19 325 11 5 33 10 50 10 21 0 31 5 31 15 0 13 -20 15 -120 15 -100
0 -120 -2 -120 -15 0 -10 10 -15 34 -15 64 0 66 -6 66 -253 0 -128 -4 -217 -9
-212 -5 6 -79 119 -166 253 l-157 242 -119 0 c-99 0 -119 -3 -119 -15z"/>
<path d="M4570 716 c0 -12 10 -16 39 -16 72 0 71 3 71 -314 0 -316 3 -304 -70
-313 -22 -3 -40 -10 -40 -15 0 -6 97 -8 243 -6 l242 3 53 29 c65 36 107 82
141 156 23 48 26 68 26 155 0 89 -3 106 -28 157 -32 65 -89 121 -156 152 -42
19 -66 21 -283 24 -211 3 -238 2 -238 -12z m471 -43 c55 -47 72 -101 77 -248
6 -187 -18 -274 -92 -329 -21 -16 -46 -22 -107 -25 -77 -3 -79 -3 -89 24 -11
28 -14 562 -4 589 5 13 23 16 94 16 82 0 91 -2 121 -27z"/>
<path d="M1538 573 l162 -3 0 -70 0 -70 -174 0 c-173 0 -175 0 -179 23 -4 19
-4 18 -6 -5 l-1 -28 185 0 185 0 0 80 0 80 -167 -2 -168 -2 163 -3z"/>
<path d="M1760 500 l0 -80 188 2 187 3 -182 2 -183 3 0 70 0 70 154 0 c148 0
155 -1 161 -21 4 -11 9 -18 12 -16 2 3 0 15 -7 26 -10 20 -19 21 -170 21
l-160 0 0 -80z"/>
<path d="M1366 545 c-9 -26 -7 -32 5 -12 6 10 9 21 6 23 -2 3 -7 -2 -11 -11z"/>
<path d="M1351 494 c0 -11 3 -14 6 -6 3 7 2 16 -1 19 -3 4 -6 -2 -5 -13z"/>
<path d="M2112 470 c0 -14 2 -19 5 -12 2 6 2 18 0 25 -3 6 -5 1 -5 -13z"/>
<path d="M1342 345 c0 -16 2 -22 5 -12 2 9 2 23 0 30 -3 6 -5 -1 -5 -18z"/>
<path d="M1703 300 c0 -41 2 -58 4 -37 2 20 2 54 0 75 -2 20 -4 3 -4 -38z"/>
<path d="M1763 300 c0 -41 2 -58 4 -37 2 20 2 54 0 75 -2 20 -4 3 -4 -38z"/>
<path d="M2112 330 c0 -14 2 -19 5 -12 2 6 2 18 0 25 -3 6 -5 1 -5 -13z"/>
<path d="M1351 300 c0 -8 4 -22 9 -30 12 -18 12 -2 0 25 -6 13 -9 15 -9 5z"/>
<path d="M2101 284 c0 -11 3 -14 6 -6 3 7 2 16 -1 19 -3 4 -6 -2 -5 -13z"/>
<path d="M2086 243 c-6 -14 -5 -15 5 -6 7 7 10 15 7 18 -3 3 -9 -2 -12 -12z"/>
<path d="M1553 173 l147 -4 0 -74 c0 -68 -2 -74 -22 -78 -20 -4 -19 -4 5 -6
l27 -1 0 85 0 85 -152 -2 -153 -2 148 -3z"/>
<path d="M1760 95 l0 -85 28 1 c23 2 24 2 5 6 -21 4 -23 10 -23 79 l0 74 136
0 c128 0 136 -1 123 -17 -11 -15 -10 -14 9 1 12 11 22 21 22 23 0 1 -67 3
-150 3 l-150 0 0 -85z"/>
<path d="M1450 125 c19 -19 36 -35 39 -35 3 0 -10 16 -29 35 -19 19 -36 35
-39 35 -3 0 10 -16 29 -35z"/>
<path d="M1974 98 l-19 -23 23 19 c12 11 22 21 22 23 0 8 -8 2 -26 -19z"/>
<path d="M1924 64 c-18 -14 -18 -15 4 -4 12 6 22 13 22 15 0 8 -5 6 -26 -11z"/>
<path d="M1544 56 c11 -9 24 -16 30 -16 12 0 7 5 -24 19 -24 11 -24 11 -6 -3z"/>
<path d="M1870 40 c-8 -5 -10 -10 -5 -10 6 0 17 5 25 10 8 5 11 10 5 10 -5 0
-17 -5 -25 -10z"/>
<path d="M1628 23 c7 -3 16 -2 19 1 4 3 -2 6 -13 5 -11 0 -14 -3 -6 -6z"/>
<path d="M1828 23 c7 -3 16 -2 19 1 4 3 -2 6 -13 5 -11 0 -14 -3 -6 -6z"/>
</g>
</svg>
