<?xml version="1.0" standalone="no"?>
<!DOCTYPE svg PUBLIC "-//W3C//DTD SVG 20010904//EN"
 "http://www.w3.org/TR/2001/REC-SVG-20010904/DTD/svg10.dtd">
<svg version="1.0" xmlns="http://www.w3.org/2000/svg"
 width="708.000000pt" height="140.000000pt" viewBox="0 0 708.000000 140.000000"
 preserveAspectRatio="xMidYMid meet">

<g transform="translate(0.000000,140.000000) scale(0.100000,-0.100000)"
fill="#000000" stroke="none">
<path d="M5890 1184 c0 -10 91 -124 99 -124 8 0 101 115 101 125 0 3 -45 5
-100 5 -55 0 -100 -3 -100 -6z"/>
<path d="M1849 1025 c-26 -8 -68 -30 -95 -47 -155 -104 -180 -457 -43 -612
115 -132 396 -137 523 -10 72 71 90 131 91 294 0 118 -3 142 -23 191 -31 77
-89 141 -154 169 -68 30 -227 38 -299 15z m196 -21 c18 -8 45 -32 59 -52 76
-111 86 -424 18 -562 -35 -71 -77 -100 -146 -100 -81 0 -130 42 -163 140 -26
79 -26 371 0 447 43 122 136 173 232 127z"/>
<path d="M4851 1025 c-69 -19 -109 -45 -156 -96 -50 -55 -73 -111 -87 -207
-21 -153 21 -306 105 -377 68 -58 152 -78 300 -72 78 3 139 11 169 21 l46 17
7 72 c4 40 5 86 3 102 -4 26 -5 28 -12 10 -67 -161 -103 -197 -201 -203 -84
-6 -126 10 -173 63 -52 60 -73 127 -79 262 -10 209 45 352 150 392 42 16 114
13 153 -5 45 -21 100 -86 117 -137 7 -23 19 -43 26 -45 9 -3 11 19 9 89 l-3
92 -40 15 c-60 21 -267 26 -334 7z"/>
<path d="M5863 1026 c-95 -31 -157 -89 -194 -183 -20 -50 -23 -76 -24 -193 0
-130 1 -137 31 -200 54 -114 117 -159 250 -180 130 -20 265 18 332 94 44 50
61 87 78 164 47 223 -26 420 -181 487 -54 23 -233 30 -292 11z m208 -29 c77
-52 109 -152 109 -346 0 -184 -24 -267 -95 -329 -30 -27 -43 -32 -89 -32 -71
0 -113 28 -148 100 -72 143 -57 474 25 572 50 61 137 76 198 35z"/>
<path d="M4162 812 c-111 -328 -168 -475 -193 -494 -24 -20 -89 -24 -120 -8
-18 10 -19 25 -19 338 0 242 3 331 12 340 7 7 24 12 39 12 15 0 31 5 34 10 4
6 -36 10 -112 10 l-118 0 -99 -255 c-55 -141 -103 -252 -107 -248 -4 4 -57
118 -116 253 l-108 245 -118 3 c-75 2 -117 -1 -117 -8 0 -5 13 -10 29 -10 63
0 63 -2 59 -335 -3 -327 -7 -347 -61 -357 -58 -11 -86 24 -113 138 -27 116
-78 187 -146 201 -44 9 -42 20 5 31 93 24 147 86 147 170 0 79 -40 137 -109
161 -44 14 -481 15 -481 1 0 -5 12 -10 28 -10 58 0 57 9 60 -335 2 -207 -1
-322 -8 -334 -6 -11 -26 -23 -45 -27 -77 -14 -27 -24 125 -24 100 0 160 4 160
10 0 6 -11 10 -25 10 -14 0 -34 9 -45 20 -18 18 -20 33 -20 170 l0 150 60 0
c78 0 103 -22 119 -106 21 -110 43 -184 62 -208 28 -35 90 -46 268 -46 152 0
203 10 127 24 -18 4 -42 16 -52 27 -18 19 -19 43 -22 308 -2 157 -1 284 1 281
3 -3 62 -148 132 -323 98 -245 131 -317 144 -317 13 0 29 32 66 133 27 72 81
220 121 327 l73 195 -2 -310 -2 -309 -37 -9 c-85 -20 -27 -27 227 -27 246 0
323 8 225 24 -23 3 -43 12 -46 19 -2 7 10 64 28 127 l33 115 117 3 117 3 36
-116 c38 -121 39 -145 6 -145 -26 0 -51 -10 -51 -21 0 -5 72 -9 160 -9 100 0
160 4 160 10 0 6 -8 10 -18 10 -46 0 -58 24 -178 380 l-119 350 -50 0 -50 0
-73 -218z m-1438 167 c42 -33 59 -76 59 -149 0 -114 -38 -158 -138 -162 l-60
-3 -3 154 c-2 104 1 158 9 167 18 22 101 18 133 -7z m1553 -221 l49 -153 -99
-3 c-55 -1 -101 -1 -103 1 -6 5 90 307 98 307 4 0 29 -69 55 -152z"/>
<path d="M0 1010 c0 -5 12 -10 28 -10 58 0 57 9 60 -335 2 -207 -1 -322 -8
-334 -6 -11 -26 -23 -45 -27 -89 -16 -14 -24 240 -24 151 0 275 4 275 8 0 5
-19 12 -42 18 -67 14 -70 26 -76 331 -3 151 -1 263 4 263 5 0 101 -140 214
-310 l205 -309 47 -1 47 0 3 339 c3 393 1 381 93 381 28 0 56 -5 63 -12 13
-13 18 -644 4 -664 -4 -6 -22 -15 -39 -19 -74 -16 -25 -25 132 -25 103 0 165
4 165 10 0 6 -11 10 -24 10 -14 0 -36 4 -50 10 l-26 10 0 161 0 162 90 -5
c101 -6 121 -17 140 -74 21 -62 30 -35 30 86 0 73 -4 120 -10 120 -5 0 -10 -5
-10 -11 0 -26 -33 -77 -56 -88 -14 -6 -61 -11 -104 -11 l-80 0 0 164 c0 186
-5 176 88 176 115 0 170 -36 194 -126 7 -24 16 -44 20 -44 4 0 8 43 8 95 l0
95 -390 0 c-253 0 -390 -4 -390 -10 0 -5 15 -10 33 -10 55 0 68 -17 78 -101
10 -92 12 -419 2 -419 -5 0 -91 122 -193 270 l-185 269 -267 1 c-172 0 -268
-4 -268 -10z m393 -29 c16 -16 22 -381 9 -535 -11 -128 -23 -146 -98 -146 -74
0 -74 -1 -74 350 0 364 -2 355 91 348 33 -2 65 -10 72 -17z"/>
<path d="M5295 1010 c3 -5 16 -10 28 -10 53 -1 52 5 55 -342 3 -320 3 -323
-19 -340 -12 -10 -32 -18 -45 -18 -13 0 -24 -4 -24 -10 0 -6 60 -10 160 -10
158 0 195 8 123 26 -33 8 -38 14 -46 49 -4 22 -7 169 -5 326 3 311 5 319 59
319 16 0 29 5 29 10 0 6 -60 10 -161 10 -104 0 -158 -3 -154 -10z"/>
<path d="M6350 1011 c0 -5 16 -12 35 -15 26 -5 39 -14 47 -34 7 -18 9 -123 6
-308 -6 -312 -9 -332 -65 -349 -61 -17 -34 -25 87 -25 66 0 120 4 120 9 0 5
-20 14 -45 20 -35 9 -48 18 -57 39 -13 33 -25 552 -12 552 5 0 101 -140 214
-310 l205 -310 47 0 47 0 3 339 c3 317 4 340 22 360 11 12 30 21 43 21 12 0
23 5 23 10 0 6 -47 10 -120 10 -73 0 -120 -4 -120 -10 0 -5 13 -10 29 -10 17
0 42 -10 58 -24 l27 -24 4 -236 c3 -130 0 -236 -4 -236 -5 1 -92 122 -194 270
l-185 269 -107 1 c-60 0 -108 -4 -108 -9z"/>
</g>
</svg>
